<svg xmlns="http://www.w3.org/2000/svg" xmlns:xlink="http://www.w3.org/1999/xlink" width="100%" height="100%" viewBox="0 0 99 118" fill-rule="evenodd" stroke-linejoin="round" stroke-miterlimit="2" xmlns:v="https://vecta.io/nano"><use xlink:href="#C" fill="#ff3e00" fill-rule="nonzero"/><clipPath id="A"><use xlink:href="#C"/></clipPath><g clip-path="url(#A)"><path d="M49.569 13.565c.732-5.133 1.263-10.405 1.415-13.566h6.102v20.153c0 .253-.341.304-.43.076l-.581-1.719c-.948-2.82-1.301-4.172-1.301-4.994 0-.203.012-1.366-.139-1.505-.076-.063-.114-.038-.101.051.038.24-.139 1.365-.48 2.946-.417 1.985-.544 3.249-.695 6.89-.177 4.312-.215 4.084 2.994 17.663l.72 3.072s8.439 40.257 3.07 48.121c-.341.493-2.64 2.288-3.07 1.82L55.595 76.39c-.43-1.441-.872-3.376-1.402-6.271-.152-.847-.67-3.249-1.125-5.348l-1.2-5.551c-.19-.961-.442-2.124-.556-2.566-.114-.455-.253-1.29-.303-1.846-.152-1.517-.91-6.044-1.163-6.992-.126-.455-.303-1.517-.416-2.364l-.417-2.984c-.24-1.555-.569-4.084-.809-6.372l-.278-2.365c-.151-1.087-.417-6.435-.417-8.584 0-1.1.101-1.96.417-3.288.67-2.87 1.402-6.612 1.643-8.294zM19.462 7.838l.493-2.301a69.4 69.4 0 0 0 .442-2.466l.518-3.085h-3.462c.367 1.897.632 3.692.72 4.931.127 1.859.367 4.35.455 4.792.127.683.43 0 .834-1.871zM5.199.151l-.026.961a21.72 21.72 0 0 0 .518 5.335l.266 1.176 1.933 8.838c.467 2.263 2.438 11.075 2.804 12.542l1.036 4.109c.885 3.464 1.112 4.691 1.44 7.51l.367 3.047c.076.544.126 1.429.126 1.96 0 .923.644 5.108 1.301 8.471.518 2.68.822 4.589.91 5.967.126 1.859.366 4.35.455 4.792h.013c.176.873.593-.392 1.25-3.869.266-1.403 1.163-5.259 1.706-7.409.328-1.277.366-1.757.366-4.273 0-1.568-.063-3.464-.126-4.21l-.366-4.046-.43-4.425-.43-4.628c-.126-1.58-.303-3.236-.379-3.666s-.328-2.238-.555-4.008c-.834-6.537-1.883-11.834-4.549-22.948L12.513.05H5.199v.101zM37.68 116.469l-.657-5.019-.556-4.312c-.278-2.073-.303-2.705-.202-5.133.063-1.53.177-3.375.253-4.109 1.01-9.546 1.162-11.657 1.162-16.272 0-1.871.101-4.918.227-6.777.19-2.768.215-5.019.152-12.377l.063-10.494c.152-1.669.708-6.676 1.125-10.128.669-5.525.732-6.675.758-13.06.025-6.625-.215-16.955-.455-19.155l-.366-3.881-.43-4.21-.19-1.543h-7.719l.19 2.364c.101 1.543.265 3.262.593 6.069l.417 4.008c.746 7.776.961 12.694.885 20.154l-.164 7.092c-.253 2.251-1.567 10.381-2.009 12.454-.758 3.54-.935 5.045-1.024 8.939-.063 2.769-.025 4.071.152 5.651.43 3.895.594 8.396.518 14.186-.101 7.839-.051 32.936.076 36.223l.012-.012.026.834h7.365c-.063-.379-.126-.961-.202-1.492zm-15.211-.607c1.617-7.042 1.579-6.789 1.693-13.465.114-7.232.189-7.914 1.769-16.651.96-5.26 1.415-8.547 1.667-11.822.354-4.69.215-13.465-.303-18.8-.114-1.214-.202-3.705-.202-5.753 0-4.64.152-5.942 1.693-14.413.96-5.31 1.15-6.6 1.377-9.748.442-5.917-.253-13.048-1.807-18.712-.77-2.794-1.945-5.614-2.665-6.499h-.544c-.05.632-.063 2.466-.025 5.525.114 8.408-.076 10.81-1.39 18.219-.492 2.731-.783 5.412-.935 8.534-.151 3.111-.214 3.958-.833 11.202-.076.911-.177 4.565-.228 8.117-.126 8.99-.328 11.506-1.364 17.296l-.821 4.337c-.177.67-.544 3.528-.733 5.728-.089.96-.278 5.449-.43 9.975l-.417 9.773c-.151 1.732-.366 3.25-.492 3.427-.24.341-.834-3.325-1.226-7.548l-.505-5.159c-.114-1.087-.405-4.362-.632-7.295-.644-8.155-.733-8.774-2.64-17.46l-1.377-6.765c-.38-2.187-.417-2.554-.266-3.502.682-4.438.619-10.974-.151-16.398-.518-3.667-.986-5.589-2.224-9.116-.884-2.529-1.465-3.945-4.662-11.455-1.579-3.692-1.806-4.45-2.223-7.27-.266-1.782-.304-2.731-.304-7.535L1.257-.014h-6.456l-.051 1.631c-.05 1.859-.164 4.084-.252 4.931-.24 2.137-.165 8.446.113 10.911.632 5.374 2.06 11.063 3.854 15.324.581 1.391.682 2.63.48 5.943-.152 2.414-.152 3.059.012 3.59.215.746.796 1.252 1.428 1.252.556 0 1.503-.683 1.781-1.29.417-.91 1.087-5.892 1.087-8.066 0-1.593.366-3.907.808-5.083.266-.708.304-.746.493-.417.506.872.733 1.656 1.125 3.919.189 1.113.189 9.571-.013 11.19l-.291 2.465c-.088.708-.391 2.668-.682 4.375-.518 3.085-.53 3.097-.518 7.51.013 4.21.025 4.552.455 7.093l.758 4.728c.404 2.63 1.428 7.612 2.16 10.381.316 1.188.796 3.337 1.062 4.779.278 1.441.985 4.64 1.579 7.093 1.137 4.728 1.844 8.015 2.489 11.568.215 1.189.657 3.035.985 4.109.771 2.516 1.794 6.448 2.502 9.521l.012-.013.114.506h5.698l.48-2.074zm-29.854.43c.127-1.782.19-3.274.152-3.338-.139-.202-.821 1.341-1.731 3.92-.139.379-.265.834-.379 1.087h1.832c.05-.506.088-1.062.126-1.669zM-10 60.257c.126.506.114 1.1.164 1.707.253 3.338.303 19.319.076 25.211-.114 2.946-.088 4.058.088 6.17.19 2.162.215 3.868.127 10.43v8.067h-.013c.051.126.139.227.215.227.316 0 1.162-2.781 2.299-7.51l2.047-8.117c.43-1.53 1.099-4.159 1.491-5.866.606-2.643.733-3.414.821-5.348.051-1.239.202-2.908.328-3.705.165-1.062.228-2.516.228-5.55 0-3.996-.063-4.931-.543-8.079-.316-2.137-.48-4.476-.657-9.407-.139-4.071-.139-4.488.164-7.371.316-2.984.316-3.085.076-4.893-.139-1.024-.544-3.161-.897-4.767-.607-2.756-.657-3.097-.771-6.334-.101-2.554-.278-4.539-.707-7.813l-.784-6.044-.429-3.388c-.935-7.194-.91-6.878-.96-14.35l-.026-3.541H-10v60.271zm15.401 57.704h5.887l-.379-1.681c-.278-1.239-.581-2.883-.657-3.642-.088-.758-.303-2.238-.493-3.287-.214-1.188-.366-2.807-.429-4.273-.051-1.303-.139-2.693-.228-3.085-.151-.759-.151-.822-.429-3.288l-.379-3.085c-.114-.847-.24-1.896-.278-2.326-.051-.43-.278-1.909-.506-3.275-.454-2.68-1.591-6.372-3.044-9.925l-1.339-3.312c-.316-.797-.784-1.758-1.024-2.137-.366-.556-.467-.632-.657-.417-.151.177-.189.468-.139.898.051.366-.05 1.441-.227 2.49-.177 1.012-.316 2.542-.329 3.389-.012 1.454.038 1.669.721 3.704l1.604 4.779c.897 2.681 1.023 3.351 1.276 6.739l.96 11.202c.164 1.581.202 3.148.152 6.878 0 1.404-.025 2.769-.063 3.654zm-6.065-11.037c-.417-1.189-.796-2.39-.846-2.694-.051-.29-.126-2.187-.164-4.21-.051-2.023-.139-4.046-.215-4.501s-.164-1.087-.202-1.428c-.076-.746-.291-1.088-.405-.645-.05.177-.947 5.98-.947 7.143 0 .531.101 1.593.227 2.365.177 1.112.215 2.149.152 5.107-.076 4.109-.126 4.476-1.251 8.825-.101.38-.189.822-.278 1.075h5.711c-.038-3.793-.682-7.94-1.782-11.037zm66.341 5.145s2.274-14.11 2.185-15.07c.518-4.034 3.134-10.722 3.159-11.961.038-2.124 1.036-6.081.872-8.509-.278-4.21-1.226-10.178-2.856-17.903-1.036-4.918-1.503-6.815-2.792-11.303a172.57 172.57 0 0 1-1.554-5.968c-1.415-5.854-2.362-9.394-2.868-10.683-.783-1.973-2.678-8.497-3.032-8.497-.467 0-.101 8.838.177 11.354l.417 4.008c.114 1.189.303 2.617.417 3.186a519.86 519.86 0 0 0 1.933 9.027c.088.329.253 1.808.354 3.288.113 1.479.265 3.11.341 3.628.076.506.215 1.568.29 2.365l.531 4.627c.215 1.758.442 4.021.505 5.045l.278 3.666c.089.999.139 3.591.127 5.753-.026 2.428.038 4.526.139 5.487.189 1.631-2.312 8.383-4.069 12.783-1.061 2.655-1.705 5.462-1.945 8.319l-1.049 13.25h8.44v-5.892zM90.11 17.725c.228 1.087.443-.013.582-3.022l.189-3.692c.025-.455.076-2.237.101-3.957l.152-7.055h-3.98c.834 3.793 1.529 7.586 1.845 10.051.379 2.984.96 6.967 1.111 7.675zM75.19 3.097l.846 3.805 1.933 8.838c.468 2.263 2.439 11.076 2.805 12.542l1.036 4.109c.884 3.464 1.112 4.691 1.44 7.51l.367 3.047c.076.544.126 1.429.126 1.96 0 .923.644 5.108 1.301 8.471.518 2.68.822 4.59.91 5.968.126 1.858.366 4.349.455 4.792h.012c.177.872.594-.405 1.251-3.869.278-1.404 1.162-5.26 1.706-7.409.328-1.277.366-1.758.366-4.274 0-1.567-.063-3.464-.126-4.21l-.367-4.046-.429-4.425-.43-4.627c-.126-1.581-.303-3.237-.379-3.667s-.328-2.238-.556-4.008c-.833-6.536-1.882-11.834-4.548-22.947l-.151-.633h-7.505l-.063 3.073zm16.942 113.157c1.617-7.042 1.579-6.789 1.693-13.465.114-7.232.189-7.915 1.769-16.651.96-5.26 1.415-8.547 1.667-11.822.354-4.69.215-13.465-.303-18.8-.114-1.214-.202-3.705-.202-5.753 0-4.64.151-5.942 1.693-14.413.96-5.31 1.15-6.6 1.377-9.748.442-5.917-.253-13.061-1.807-18.712-.998-3.604-2.665-7.207-3.146-6.777-.101.088-.126 1.96-.075 5.816.113 8.408-.076 10.81-1.39 18.219-.493 2.731-.783 5.411-.935 8.534-.152 3.11-.215 3.957-.821 11.202-.076.91-.177 4.564-.228 8.13-.126 8.989-.328 11.505-1.377 17.296l-.821 4.336c-.177.67-.543 3.528-.733 5.728-.088.961-.278 5.449-.429 9.975l-.417 9.774c-.152 1.732-.366 3.249-.493 3.426-.24.341-.834-3.325-1.225-7.548l-.506-5.159c-.113-1.087-.404-4.362-.631-7.295-.645-8.155-.733-8.774-2.641-17.46l-1.377-6.764c-.379-2.188-.417-2.554-.265-3.503.682-4.437.619-10.974-.152-16.398-.518-3.666-.985-5.588-2.223-9.116-.885-2.528-1.466-3.944-4.662-11.455-1.579-3.691-1.807-4.45-2.224-7.269-.265-1.783-.303-2.731-.303-7.536L70.932.012h-6.418l-.063 2.023c-.05 1.858-.164 4.083-.252 4.931-.241 2.136-.165 8.445.113 10.911.632 5.373 2.06 11.063 3.854 15.323.581 1.391.682 2.63.48 5.943-.152 2.415-.152 3.059.012 3.59.215.746.796 1.252 1.428 1.252.556 0 1.503-.683 1.781-1.289.417-.911 1.087-5.892 1.087-8.067 0-1.593.379-3.907.808-5.083.266-.708.304-.745.493-.417.505.873.733 1.657 1.124 3.92.19 1.112.19 9.571-.012 11.189l-.291 2.465c-.088.708-.391 2.668-.682 4.375-.518 3.085-.531 3.098-.518 7.51.013 4.21.025 4.552.455 7.093l.758 4.729c.404 2.629 1.427 7.611 2.16 10.38.316 1.188.796 3.338 1.061 4.779.278 1.441.986 4.64 1.58 7.093 1.137 4.728 1.844 8.016 2.489 11.568.214 1.189.657 3.035.985 4.11.771 2.516 1.794 6.448 2.502 9.52v-.013l.025.114h5.887l.354-1.707zM108 93.092c-.126-2.971-.152-5.943-.114-9.495l.114-6.208V-.001h-4.864l.619 4.741.556 4.312c.278 2.073.303 2.705.202 5.145-.063 1.53-.177 3.376-.253 4.11-1.01 9.545-1.162 11.657-1.162 16.272 0 1.871-.101 4.918-.227 6.776-.19 2.769-.215 5.02-.152 12.378l-.063 10.494c-.152 1.669-.708 6.676-1.125 10.127-.669 5.525-.732 6.676-.758 13.061-.025 6.625.215 16.955.455 19.155l.379 3.881.43 4.21.354 2.971.037.342H108V93.092zm-52.443 23.061a79.44 79.44 0 0 1-.278-2.857c-.366-4.299-.771-8.231-.96-9.457-.341-2.162-.72-5.69-.885-8.117-.277-4.211-1.238-10.178-2.867-17.903-1.036-4.919-1.504-6.815-2.792-11.303-.417-1.467-1.125-4.16-1.554-5.968-1.415-5.854-2.363-9.394-2.868-10.684-.784-1.972-1.996-6.359-2.401-7.308-.113-.278-.53-1.15-.631-1.188-.24-.114-.102 8.838.176 11.354l.417 4.008c.127 1.188.304 2.617.417 3.186.329 1.669 1.769 8.382 1.933 9.027.089.329.24 1.808.354 3.287s.265 3.111.341 3.629c.076.506.215 1.568.291 2.364l.53 4.628c.215 1.757.442 4.02.506 5.044l.278 3.667c.088.999.139 3.591.126 5.753-.025 2.427.038 4.526.139 5.487.278 2.364.947 5.146 1.946 7.99.492 1.416.998 2.984 1.124 3.503.189.834.429 2.516.556 3.653h6.216c0-.619-.051-1.34-.114-1.795zm-9.892-.291c-.417-3.413-.683-5.942-.859-8.218-.089-1.125-.253-2.92-.379-3.995-.253-2.251-.291-12.719-.051-15.653.177-2.199-.025-1.833-.114-1.909-.404-.354-2.981 7.46-3.979 12.075-.379 1.757-1.276 4.438-1.592 4.716-.278.265-.607 1.289-.746 2.427-.265 2.036.556 7.839 1.744 12.264l-.013-.012.114.391h6.127l-.252-2.086zm35.551 1.783c0-5.045-1.175-10.469-3.196-14.54-.758-1.542-1.263-3.123-1.352-3.502s-.417-2.832-.493-5.449-.265-5.247-.404-5.829-.303-1.416-.366-1.846c-.139-.973-.518-1.403-.733-.834-.088.227-1.162 6.663-1.162 8.18 0 .683.088 3.3.315 4.299.329 1.441-.075 2.63-.189 6.461-.152 5.322-.24 5.79-2.261 11.442l-.695 1.959h10.536v-.341zM43.214 7.711c.492 2.504 1.2 7.776 1.453 10.798l.227 2.364.202 1.619c.076.67.215 1.428.291 1.706h.012c.253.949.67 0 1.024-2.288.556-3.528.593-4.311.593-10.178 0-5.576-.075-7.422-.568-11.72h-5.129c.682 2.516 1.604 6.182 1.895 7.699z" fill-rule="nonzero"/></g><path d="M40.9 103.9c-8.9 2.3-18.2-1.2-23.4-8.7-3.2-4.4-4.4-9.9-3.5-15.3l.6-2.6.5-1.6 1.4 1c3.3 2.4 6.9 4.2 10.8 5.4l1 .3-.1 1c-.1 1.4.3 2.9 1.1 4.1 1.6 2.3 4.4 3.4 7.1 2.7.6-.2 1.2-.4 1.7-.7L65.5 72c1.4-.9 2.3-2.2 2.6-3.8s-.1-3.3-1-4.6c-1.6-2.3-4.4-3.3-7.1-2.6-.6.2-1.2.4-1.7.7l-10.5 6.7c-1.7 1.1-3.6 1.9-5.6 2.4-8.9 2.3-18.2-1.2-23.4-8.7-3.1-4.4-4.4-9.9-3.4-15.3.9-5.2 4.1-9.9 8.6-12.7l27.5-17.5c1.7-1.1 3.6-1.9 5.6-2.5 8.9-2.3 18.2 1.2 23.4 8.7 3.2 4.4 4.4 9.9 3.5 15.3-.2.9-.4 1.7-.7 2.6l-.5 1.6-1.4-1c-3.3-2.4-6.9-4.2-10.8-5.4l-1-.3.1-1c.1-1.4-.3-2.9-1.1-4.1-1.6-2.3-4.4-3.3-7.1-2.6-.6.2-1.2.4-1.7.7L32.4 46.1c-1.4.9-2.3 2.2-2.6 3.8s.1 3.3 1 4.6c1.6 2.3 4.4 3.3 7.1 2.6.6-.2 1.2-.4 1.7-.7l10.5-6.7c1.7-1.1 3.6-1.9 5.6-2.5 8.9-2.3 18.2 1.2 23.4 8.7 3.2 4.4 4.4 9.9 3.5 15.3-.9 5.2-4.1 9.9-8.6 12.7l-27.5 17.5c-1.7 1.1-3.6 1.9-5.6 2.5" fill="#fff" fill-rule="nonzero"/><defs ><path id="C" d="M91.8 15.6C80.9-.1 59.2-4.7 43.6 5.2L16.1 22.8C8.6 27.5 3.4 35.2 1.9 43.9.6 51.2 1.7 58.7 5.2 65.2 2.8 68.8 1.2 72.8.5 77c-1.6 8.9.5 18.1 5.7 25.4 11 15.7 32.6 20.3 48.2 10.4l27.5-17.5c7.5-4.7 12.7-12.4 14.2-21.1 1.3-7.3.2-14.8-3.3-21.3 2.4-3.6 4-7.6 4.7-11.8 1.7-9-.4-18.2-5.7-25.5"/></defs></svg>
